<svg width="52" height="52" viewBox="0 0 52 52" fill="none" xmlns="http://www.w3.org/2000/svg">
<g clip-path="url(#clip0_7_63735)">
<path d="M26.062 51.9268C40.4152 51.9268 52.0508 40.2912 52.0508 25.938C52.0508 11.5848 40.4152 -0.0507812 26.062 -0.0507812C11.7088 -0.0507812 0.0732422 11.5848 0.0732422 25.938C0.0732422 40.2912 11.7088 51.9268 26.062 51.9268Z" fill="white"/>
<path d="M25.9967 47.7482C37.9801 47.7482 47.6945 38.0338 47.6945 26.0504C47.6945 14.067 37.9801 4.35254 25.9967 4.35254C14.0133 4.35254 4.29883 14.067 4.29883 26.0504C4.29883 38.0338 14.0133 47.7482 25.9967 47.7482Z" fill="#3454FB"/>
<path d="M25.9958 42.4174C35.035 42.4174 42.3627 35.0897 42.3627 26.0505C42.3627 17.0113 35.035 9.68359 25.9958 9.68359C16.9566 9.68359 9.62891 17.0113 9.62891 26.0505C9.62891 35.0897 16.9566 42.4174 25.9958 42.4174Z" fill="white"/>
<path d="M23.7849 23.982C25.5825 23.982 27.0396 22.5248 27.0396 20.7273C27.0396 18.9298 25.5825 17.4727 23.7849 17.4727C21.9874 17.4727 20.5303 18.9298 20.5303 20.7273C20.5303 22.5248 21.9874 23.982 23.7849 23.982Z" fill="#3454FB"/>
<path d="M26.7404 22.0962C26.7404 22.0962 31.3343 20.5118 34.0279 25.0329C34.0279 25.0329 36.3884 30.2198 32.1499 32.9806C32.1499 32.9806 29.3235 35.1747 25.6817 33.4295C25.6817 33.4295 24.4677 32.831 23.4707 29.971C23.4707 29.971 22.9881 28.3418 21.5759 28.2258C21.5759 28.2258 18.8001 27.9097 19.1985 30.9362C19.1985 30.9362 19.7297 33.1639 22.2568 32.2493C22.2568 32.2493 23.3211 31.4842 23.7027 31.95C23.7027 31.95 24.3087 32.9114 23.2369 33.4295C23.2369 33.4295 21.69 34.593 19.7615 33.7288C19.7615 33.7288 18.05 33.1434 17.5506 30.5621C17.5506 30.5621 17.3879 26.5592 21.7405 26.6957C21.7405 26.6957 23.8317 26.6546 24.7838 29.2153C24.7838 29.2153 25.4572 31.559 26.342 32.008C26.342 32.008 28.6315 33.4352 31.1791 31.7592C31.1791 31.7592 34.6339 29.6511 32.4267 25.4257C32.4267 25.4257 30.2195 21.7726 25.981 24.1294C25.981 24.1294 25.3824 24.5783 25.0214 25.1021C25.0214 25.1021 24.7838 25.7698 24.174 25.854C24.174 25.854 23.5381 25.9756 23.351 25.3396C23.351 25.3396 23.1397 24.6045 23.9496 23.8563C23.9477 23.8526 25.2926 21.8979 26.7404 22.0962Z" fill="#3454FB"/>
<path d="M19.9332 27.5431C21.1108 27.5431 22.0655 26.5884 22.0655 25.4107C22.0655 24.233 21.1108 23.2783 19.9332 23.2783C18.7555 23.2783 17.8008 24.233 17.8008 25.4107C17.8008 26.5884 18.7555 27.5431 19.9332 27.5431Z" fill="#3454FB"/>
</g>
<defs>
<clipPath id="clip0_7_63735">
<rect width="52" height="52" fill="white"/>
</clipPath>
</defs>
</svg>
