<svg width="28" height="28" viewBox="0 0 28 28" fill="none" xmlns="http://www.w3.org/2000/svg">
<path d="M24.107 5.30699L21.3737 8.04033C21.1737 8.24033 20.9203 8.33366 20.667 8.33366C20.4137 8.33366 20.1603 8.24033 19.9603 8.04033C19.5737 7.65366 19.5737 7.01366 19.9603 6.62699L22.6937 3.89366C20.347 1.89366 17.3203 0.666992 14.0003 0.666992C6.64033 0.666992 0.666992 6.64033 0.666992 14.0003C0.666992 21.3603 6.64033 27.3337 14.0003 27.3337C21.3603 27.3337 27.3337 21.3603 27.3337 14.0003C27.3337 10.6803 26.107 7.65366 24.107 5.30699ZM16.3337 13.7603C17.187 14.067 18.3337 14.6803 18.3337 16.6403C18.3337 18.307 17.0137 19.6803 15.4003 19.6803H15.0003V20.0137C15.0003 20.5603 14.547 21.0137 14.0003 21.0137C13.4537 21.0137 13.0003 20.5603 13.0003 20.0137V19.6803H12.8937C11.1203 19.6803 9.66699 18.187 9.66699 16.347C9.66699 15.787 10.1203 15.3337 10.667 15.3337C11.2137 15.3337 11.667 15.787 11.667 16.3337C11.667 17.067 12.2137 17.667 12.8937 17.667H13.0003V14.707L11.667 14.2403C10.8137 13.9337 9.66699 13.3203 9.66699 11.3603C9.66699 9.69366 10.987 8.32033 12.6003 8.32033H13.0003V8.00033C13.0003 7.45366 13.4537 7.00033 14.0003 7.00033C14.547 7.00033 15.0003 7.45366 15.0003 8.00033V8.33366H15.107C16.8803 8.33366 18.3337 9.82699 18.3337 11.667C18.3337 12.2137 17.8803 12.667 17.3337 12.667C16.787 12.667 16.3337 12.2137 16.3337 11.667C16.3337 10.9337 15.787 10.3337 15.107 10.3337H15.0003V13.2937L16.3337 13.7603Z" fill="#3555F9"/>
</svg>
