<svg width="32" height="32" viewBox="0 0 32 32" fill="none" xmlns="http://www.w3.org/2000/svg">
<path d="M23.3724 10.3603C23.2791 10.347 23.1857 10.347 23.0924 10.3603C21.0257 10.2937 19.3857 8.60033 19.3857 6.52033C19.3857 4.40033 21.1057 2.66699 23.2391 2.66699C25.3591 2.66699 27.0924 4.38699 27.0924 6.52033C27.0791 8.60033 25.4391 10.2937 23.3724 10.3603Z" fill="#F97035"/>
<path d="M27.7224 19.6005C26.2291 20.6005 24.1357 20.9739 22.2024 20.7205C22.7091 19.6272 22.9757 18.4139 22.9891 17.1339C22.9891 15.8005 22.6957 14.5339 22.1357 13.4272C24.1091 13.1605 26.2024 13.5339 27.7091 14.5339C29.8157 15.9205 29.8157 18.2005 27.7224 19.6005Z" fill="#F97035"/>
<path d="M8.58655 10.3603C8.67988 10.347 8.77322 10.347 8.86655 10.3603C10.9332 10.2937 12.5732 8.60033 12.5732 6.52033C12.5732 4.38699 10.8532 2.66699 8.71988 2.66699C6.59988 2.66699 4.87988 4.38699 4.87988 6.52033C4.87988 8.60033 6.51988 10.2937 8.58655 10.3603Z" fill="#F97035"/>
<path d="M8.73447 17.1331C8.73447 18.4265 9.01447 19.6531 9.52113 20.7598C7.64113 20.9598 5.68113 20.5598 4.24113 19.6131C2.13447 18.2131 2.13447 15.9331 4.24113 14.5331C5.6678 13.5731 7.68113 13.1865 9.57447 13.3998C9.0278 14.5198 8.73447 15.7865 8.73447 17.1331Z" fill="#F97035"/>
<path d="M16.1614 21.16C16.0547 21.1467 15.9347 21.1467 15.8147 21.16C13.3614 21.08 11.4014 19.0667 11.4014 16.5867C11.4147 14.0533 13.4547 12 16.0014 12C18.5347 12 20.588 14.0533 20.588 16.5867C20.5747 19.0667 18.628 21.08 16.1614 21.16Z" fill="#F97035"/>
<path d="M11.8274 23.9195C9.81405 25.2662 9.81405 27.4795 11.8274 28.8129C14.1207 30.3462 17.8807 30.3462 20.1741 28.8129C22.1874 27.4662 22.1874 25.2529 20.1741 23.9195C17.8941 22.3862 14.134 22.3862 11.8274 23.9195Z" fill="#F97035"/>
</svg>
